<svg xmlns="http://www.w3.org/2000/svg"  viewBox="0 0 100 100" width="500px" height="500px" baseProfile="basic"><path fill="#f9dbd2" d="M50,12c-20.987,0-38,17.013-38,38s17.013,38,38,38s38-17.013,38-38S70.987,12,50,12z"/><path fill="#f1bc19" d="M78,13c-0.552,0-1,0.448-1,1s0.448,1,1,1s1-0.448,1-1S78.552,13,78,13z"/><path fill="#f1bc19" d="M84,12c-2.209,0-4,1.791-4,4s1.791,4,4,4s4-1.791,4-4S86.209,12,84,12z"/><path fill="#ee3e54" d="M14,24c-1.105,0-2,0.895-2,2s0.895,2,2,2s2-0.895,2-2S15.105,24,14,24z"/><path fill="#fbcd59" d="M78,75c-1.105,0-2,0.895-2,2s0.895,2,2,2s2-0.895,2-2S79.105,75,78,75z M17,74 c-2.209,0-4,1.791-4,4s1.791,4,4,4s4-1.791,4-4S19.209,74,17,74z"/><path fill="#ee3e54" d="M24,81c-1.105,0-2,0.895-2,2s0.895,2,2,2s2-0.895,2-2S25.105,81,24,81z"/><path fill="#fff" d="M66.483,76.034c-1.371,0-2.483,1.112-2.483,2.483S65.112,81,66.483,81s2.483-1.112,2.483-2.483 S67.854,76.034,66.483,76.034z M16,47c-0.552,0-1,0.448-1,1s0.448,1,1,1c0.552,0,1-0.448,1-1S16.552,47,16,47z"/><path fill="#f1bc19" d="M86,30c-0.552,0-1,0.448-1,1s0.448,1,1,1s1-0.448,1-1S86.552,30,86,30z"/><path fill="#fff" d="M80,64c-1.105,0-2,0.895-2,2s0.895,2,2,2s2-0.895,2-2S81.105,64,80,64z"/><path fill="#d78751" d="M80.7,53.13c0,0.04-0.01,0.09-0.01,0.13l-0.83,5.35c-0.16,1.01-0.52,1.99-1.07,2.86l-0.09,0.15 c-1.02,1.62-2.6,2.78-4.49,3.27c-0.9,0.23-1.84,0.27-2.76,0.18l-1.01-0.1l-2.98,4.93c-0.42,0.47-0.83,0.93-1.25,1.4 c-5.11,3.79-11.54,5.67-19.63,5.74l-8.52-1.01c-0.89-0.11-1.72-0.51-2.35-1.15l-2.95-2.94l-0.35,0.11 c-1.42,0.49-2.99,0.23-4.19-0.68l-1.57-1.2c-0.78-0.59-1.34-1.42-1.61-2.36l-0.93-3.24c-0.19-0.7-0.22-1.43-0.08-2.13l0.27-1.36 c0.24-1.18,0.93-2.22,1.93-2.88l0.56-0.38L25,51.04c-0.7-5.7,0.36-11,3.13-15.83c2.39-3.27,5.66-5.54,10.32-7.2 c0.04-0.01,0.08-0.02,0.12-0.03l10.29-1.77l-0.51-1.52c-0.05-0.15-0.05-0.32,0.01-0.47l2.29-6.12c0.16-0.56,0.56-0.73,0.79-0.77 c0.29-0.06,0.74,0,1.19,0.59c0.04,0.05,0.08,0.12,0.1,0.18l0.68,1.83l4.09-4.5c0.34-0.38,0.85-0.52,1.34-0.37 c0.49,0.14,0.84,0.54,0.93,1.04l0.7,4.56c0.2-0.07,0.43-0.12,0.69-0.12c1.45,0,1.79,2.4,1.84,4.16l1.03,0.25 c0.39,0.1,0.71,0.37,0.87,0.74c0.16,0.36,0.15,0.77-0.03,1.12c-0.17,0.45-0.43,0.89-0.78,1.33l5.45,5.84 c0.77,0.84,1.25,1.87,1.39,3l1.24,10.58l3.95,0.3c0.13,0.03,0.26,0.06,0.39,0.08C79.24,48.93,80.61,50.63,80.7,53.13z"/><path fill="#f6cca4" d="M32.74,68.16l-0.88,0.32c-0.23,0.08-0.46,0.12-0.69,0.12c-0.78,0-1.53-0.46-1.86-1.22l-1.28-2.9 c-0.39-0.91-0.08-1.96,0.74-2.51l1.22-0.81l0.56,0.83L32.74,68.16z"/><path fill="#472b29" d="M46.579,77.043l-8.518-1.017c-0.891-0.106-1.72-0.509-2.354-1.144l-2.945-2.945l-0.347,0.117 c-1.426,0.482-2.999,0.224-4.195-0.689l-1.571-1.199c-0.775-0.591-1.339-1.417-1.607-2.355l-0.927-3.243 c-0.198-0.694-0.228-1.425-0.086-2.133l0.272-1.36c0.236-1.178,0.93-2.214,1.931-2.88l0.558-0.371l-1.785-6.786 c-0.707-5.699,0.353-10.993,3.13-15.827c2.391-3.275,5.657-5.542,10.32-7.197c0.037-0.01,0.076-0.02,0.113-0.03l10.291-1.775 l-0.507-1.521c-0.051-0.152-0.048-0.317,0.009-0.467l2.295-6.121c0.158-0.562,0.559-0.726,0.782-0.769 c0.294-0.06,0.741,0,1.194,0.588c0.042,0.056,0.076,0.116,0.1,0.181l0.684,1.826l4.087-4.499c0.343-0.374,0.852-0.516,1.338-0.371 c0.487,0.145,0.842,0.546,0.926,1.048l0.701,4.558c0.201-0.074,0.433-0.116,0.697-0.116c1.449,0,1.787,2.394,1.84,4.151 l1.022,0.253c0.397,0.105,0.711,0.374,0.874,0.738c0.161,0.363,0.151,0.772-0.029,1.124c-0.173,0.446-0.429,0.886-0.778,1.33 l5.448,5.839c0.773,0.835,1.251,1.87,1.385,2.996l1.241,10.583l3.949,0.299c0.132,0.028,0.267,0.057,0.399,0.085 c2.724,0.992,4.093,2.688,4.185,5.185c-0.003,0.045-0.006,0.091-0.008,0.136l-0.835,5.348c-0.158,1.013-0.52,1.984-1.062,2.854 l-0.094,0.15c-1.022,1.625-2.598,2.782-4.495,3.275c-0.895,0.233-1.832,0.265-2.753,0.177l-1.017-0.098l-2.979,4.932 c-0.42,0.47-0.829,0.928-1.249,1.398C61.1,75.088,54.668,76.967,46.579,77.043z M38.707,74.694l7.949,0.953 c7.62-0.076,13.734-1.832,18.575-5.367c0.508-0.371,0.928-0.852,1.258-1.388l3.163-5.132c0.148-0.156,0.364-0.229,0.576-0.217 l1.503,0.144c0.581,0.056,1.172,0.05,1.744-0.064c1.714-0.339,3.141-1.323,4.04-2.752l0.094-0.15 c0.442-0.709,0.736-1.499,0.865-2.324l0.825-5.282c-0.09-1.876-1.097-3.066-3.256-3.854l-4.557-0.349 c-0.334-0.026-0.603-0.284-0.642-0.616l-1.309-11.155c-0.098-0.83-0.45-1.593-1.02-2.207l-5.874-6.295 c-0.248-0.266-0.254-0.684-0.005-0.95c0.441-0.471,0.741-0.919,0.942-1.407l-1.435-0.355c-0.318-0.079-0.531-0.367-0.532-0.695 c-0.002-1.43-0.249-2.941-0.529-3.283c-0.139,0.013-0.346,0.08-0.358,0.447c-0.012,0.361-0.297,0.66-0.658,0.682 c-0.352,0.027-0.679-0.229-0.734-0.586l-0.921-5.984l-4.732,5.209c-0.164,0.181-0.41,0.267-0.65,0.217 c-0.24-0.046-0.438-0.214-0.523-0.441l-0.815-2.176l-1.934,5.164l0.687,2.06c0.064,0.193,0.042,0.406-0.063,0.581 c-0.104,0.175-0.281,0.296-0.481,0.33l-11.035,1.903c-4.355,1.555-7.394,3.659-9.559,6.619c-2.581,4.501-3.581,9.503-2.93,14.803 l1.895,7.176c0.076,0.289-0.039,0.594-0.288,0.759l-0.977,0.652c-0.69,0.46-1.169,1.175-1.332,1.989l-0.272,1.361 c-0.098,0.489-0.077,0.993,0.059,1.472l0.926,3.243c0.185,0.647,0.574,1.217,1.109,1.626l1.572,1.199 c0.827,0.631,1.913,0.809,2.898,0.476l0.758-0.256c0.252-0.085,0.531-0.02,0.719,0.168l2.91,2.911 C36.988,74.185,37.816,74.587,38.707,74.694z"/><path fill="#472b29" d="M34.862,33.764c-0.184,0-0.36-0.102-0.448-0.276c-0.124-0.247-0.023-0.548,0.224-0.671l4.59-2.295 c0.049-0.024,0.103-0.041,0.158-0.049l5.874-0.783c0.278-0.041,0.525,0.157,0.562,0.43c0.037,0.274-0.156,0.525-0.43,0.562 l-5.791,0.771l-4.516,2.258C35.013,33.747,34.937,33.764,34.862,33.764z"/><path fill="#472b29" d="M48.149,30.31c-0.247,0-0.461-0.183-0.495-0.434c-0.037-0.273,0.156-0.525,0.429-0.562l2.778-0.371 c0.272-0.049,0.525,0.155,0.562,0.429s-0.156,0.525-0.429,0.562l-2.778,0.371C48.194,30.309,48.171,30.31,48.149,30.31z"/><path fill="#472b29" d="M68.523,42.18c-0.245,0-0.459-0.18-0.495-0.43l-0.548-3.841c-0.125-0.87-0.535-1.691-1.157-2.313 l-5.039-5.038c-0.195-0.195-0.195-0.512,0-0.707s0.512-0.195,0.707,0l5.039,5.038c0.773,0.773,1.285,1.796,1.44,2.88l0.548,3.841 c0.039,0.273-0.151,0.526-0.424,0.565C68.571,42.178,68.547,42.18,68.523,42.18z"/><path fill="#f6cca4" d="M28.004,57.051C27.927,53.303,29.562,51.089,32,50c4.232-1.894,9.312,0.52,12.064,6.668 c0.176,0.399,0.353,0.812,0.521,1.234c-0.092-0.659-0.075-1.337-0.138-2.024C44,51,49.438,43,56,43s12.213,0.229,12.979,13.262 C69.416,63.659,63.562,70,57,70c-0.13,0,0,0,0,0c0.13,0.836-0.157,1.87-1,2l-10,2c-0.836,0.13-1.87-1.165-2-2c0,0-0.962,1-1,1 c-3.856,0-6.985-0.639-10.051-2.939L28.004,57.051z"/><path fill="#472b29" d="M45.661,74.188c-0.833,0-1.596-0.536-1.889-1.329c-3.112,0.682-7.63,0.625-10.741-1.707 c-0.076-0.058-0.134-0.134-0.167-0.223l-4.935-12.983c-0.021-0.054-0.031-0.11-0.033-0.167c-0.078-3.624,0.851-6.417,2.616-7.864 c0.13-0.106,0.307-0.14,0.467-0.09c0.161,0.051,0.286,0.179,0.331,0.342l0.744,2.653l5.012,0.587l1.002-0.502l-0.986-2.805 c-0.066-0.189-0.014-0.399,0.134-0.535c0.148-0.135,0.362-0.169,0.545-0.086c0.949,0.433,1.877,1.03,2.759,1.775 c0.211,0.179,0.237,0.494,0.059,0.705c-0.178,0.209-0.494,0.236-0.705,0.059c-0.463-0.392-0.939-0.738-1.423-1.037l0.706,2.008 c0.083,0.237-0.022,0.5-0.248,0.613l-1.53,0.766c-0.086,0.044-0.183,0.062-0.282,0.05l-5.493-0.643 c-0.201-0.024-0.369-0.167-0.423-0.362l-0.604-2.156c-1.125,1.354-1.73,3.631-1.684,6.415l4.852,12.765 c2.963,2.138,7.318,2.075,10.175,1.36c0.161-0.041,0.411-0.026,0.647,0.298c0.047,0.064,0.078,0.14,0.09,0.218 c0.042,0.271,0.188,0.51,0.412,0.673c0.224,0.163,0.497,0.231,0.769,0.188c0.104-0.011,7.289-0.665,9.529-1.368 c0.743-0.233,0.853-0.768,0.789-1.554c-0.018-0.216-0.034-0.419,0.131-0.599c0.095-0.103,0.237-0.165,0.377-0.165 c3.263,0,6.613-1.487,8.961-3.978c2.224-2.359,3.348-5.378,3.164-8.499c-0.193-3.289-0.676-5.852-1.476-7.836 c-0.103-0.256,0.021-0.547,0.277-0.65c0.255-0.102,0.547,0.02,0.651,0.277c0.841,2.086,1.347,4.752,1.546,8.15 c0.201,3.398-1.019,6.682-3.434,9.243c-2.412,2.56-5.812,4.136-9.182,4.281c0.02,0.664-0.107,1.843-1.504,2.282 c-2.343,0.734-9.407,1.379-9.707,1.406C45.861,74.181,45.76,74.188,45.661,74.188z M44.169,72.766 c-0.004,0.001-0.009,0.002-0.013,0.003C44.161,72.768,44.165,72.767,44.169,72.766z"/><path fill="#472b29" d="M44.945,59.118c-0.2,0-0.387-0.121-0.464-0.314c-0.166-0.415-0.339-0.822-0.513-1.215 c-0.586-1.309-1.32-2.52-2.182-3.597c-0.172-0.216-0.137-0.53,0.078-0.703c0.216-0.172,0.53-0.136,0.703,0.078 c0.656,0.82,1.242,1.713,1.75,2.664c0.097-2.715,0.891-5.307,2.31-7.529c0.105-0.166,0.297-0.248,0.494-0.226 c0.194,0.028,0.354,0.168,0.408,0.357l0.63,2.196l5.979-3.986l-1.173-2.936c-0.051-0.128-0.047-0.271,0.011-0.396 c0.059-0.126,0.166-0.221,0.297-0.264c1.086-0.357,2.228-0.538,3.393-0.538c3.945,0,7.691,0.271,10.169,3.549 c0.167,0.221,0.123,0.534-0.097,0.7c-0.221,0.166-0.534,0.123-0.701-0.097c-2.204-2.915-5.548-3.152-9.372-3.152 c-0.877,0-1.739,0.112-2.569,0.335l1.121,2.805c0.088,0.22,0.01,0.471-0.187,0.602l-6.886,4.591 c-0.132,0.089-0.3,0.108-0.45,0.054c-0.15-0.056-0.264-0.179-0.308-0.332l-0.495-1.726c-1.04,1.986-1.585,4.231-1.585,6.561 c0,0.662,0.045,1.318,0.133,1.95c0.035,0.251-0.123,0.487-0.367,0.553C45.03,59.112,44.987,59.118,44.945,59.118z"/><path fill="#b2876b" d="M38.91,53.6l-1.53,0.77c-0.07,0.03-0.15,0.05-0.22,0.05H37.1l-5.49-0.64 c-0.21-0.03-0.37-0.17-0.43-0.37l-1.03-3.7c-0.05-0.19,0.01-0.39,0.15-0.51l1.17-1.01c0.11-0.1,0.25-0.13,0.39-0.12l5.49,0.64 c0.19,0.02,0.35,0.15,0.42,0.33l0.22,0.66c0.02,0.02,0.03,0.04,0.04,0.07l1.13,3.22C39.24,53.23,39.14,53.49,38.91,53.6z"/><path fill="#b2876b" d="M55.03,47.45l-6.89,4.59c-0.08,0.06-0.18,0.09-0.27,0.09c-0.06,0-0.12-0.01-0.18-0.03 c-0.15-0.06-0.26-0.18-0.3-0.34l-1.53-5.35c-0.07-0.24,0.05-0.49,0.27-0.6l6.89-3.06c0.12-0.05,0.26-0.05,0.39,0 c0.13,0.05,0.23,0.15,0.28,0.27l1.53,3.83C55.31,47.07,55.23,47.32,55.03,47.45z"/><path fill="#472b29" d="M47.867,52.126c-0.058,0-0.116-0.01-0.172-0.03c-0.15-0.056-0.264-0.179-0.308-0.332l-1.53-5.356 c-0.068-0.239,0.05-0.492,0.278-0.594l6.885-3.061c0.124-0.055,0.265-0.058,0.391-0.007c0.126,0.052,0.226,0.151,0.276,0.277 l1.531,3.826c0.088,0.22,0.01,0.471-0.187,0.602l-6.886,4.591C48.062,52.098,47.965,52.126,47.867,52.126z M46.937,46.551 l1.222,4.279l5.979-3.986l-1.186-2.967L46.937,46.551z"/><path fill="#472b29" d="M37.157,54.421c-0.02,0-0.039-0.001-0.058-0.003l-5.493-0.643 c-0.201-0.024-0.369-0.167-0.423-0.362l-1.034-3.706c-0.051-0.186,0.01-0.385,0.156-0.511l1.171-1.01 c0.106-0.092,0.245-0.129,0.385-0.118l5.493,0.643c0.19,0.022,0.351,0.152,0.414,0.333l0.227,0.652 c0.013,0.022,0.024,0.047,0.033,0.072l1.132,3.221c0.083,0.237-0.022,0.5-0.248,0.613l-1.53,0.766 C37.311,54.403,37.234,54.421,37.157,54.421z M32.055,52.82l5.012,0.587l1.002-0.502l-0.96-2.73 c-0.013-0.024-0.024-0.05-0.034-0.076l-0.15-0.431l-4.963-0.58l-0.765,0.66L32.055,52.82z"/><path fill="#472b29" d="M31.175,68.597c-0.785,0-1.533-0.458-1.864-1.213l-1.276-2.905 c-0.397-0.904-0.089-1.958,0.733-2.506l1.227-0.817l0.555,0.832l-1.227,0.817c-0.417,0.278-0.574,0.812-0.372,1.271l1.276,2.905 c0.216,0.493,0.783,0.738,1.292,0.556l0.879-0.316l0.339,0.941l-0.88,0.316C31.632,68.559,31.402,68.597,31.175,68.597z"/><path fill="#f6cca4" d="M75.57,57.08l-0.34,2.38c-0.08,0.61-0.62,1.08-1.25,1.08h-1.63c-0.7,0-1.27-0.57-1.27-1.26v-6.12 c0-0.7,0.57-1.27,1.27-1.27h1.12c0.42,0,0.82,0.21,1.05,0.56C75.43,53.82,75.8,55.46,75.57,57.08z"/><path fill="#472b29" d="M73.981,60.541H72.35c-0.698,0-1.265-0.567-1.265-1.265v-6.121c0-0.697,0.567-1.265,1.265-1.265 h1.121c0.424,0,0.818,0.211,1.053,0.563c0.908,1.363,1.281,3.006,1.05,4.627l-0.339,2.374 C75.145,60.074,74.607,60.541,73.981,60.541z M72.35,52.891c-0.146,0-0.265,0.119-0.265,0.265v6.121 c0,0.146,0.119,0.265,0.265,0.265h1.631c0.131,0,0.244-0.098,0.262-0.227l0.339-2.374c0.197-1.378-0.12-2.773-0.892-3.932 c-0.049-0.074-0.131-0.118-0.22-0.118H72.35z"/><path fill="#fff" d="M42.49,62.91c0.87,2.49,0.86,4.6-0.05,6.1c-0.73,1.21-2,1.98-3.68,2.24 c-0.27,0.04-0.54,0.06-0.82,0.06c-2.71,0-5.85-1.93-7.38-6.52c-0.06-0.2-0.14-0.41-0.22-0.65c-0.87-2.46-2.67-7.58,1.5-9.23 c1.87-0.74,3.58-0.77,5.08-0.08C39.82,56.15,41.42,59.84,42.49,62.91z"/><path fill="#fff" d="M65.96,58.89c0,5.13-3.65,9.3-8.15,9.3c-0.32,0-0.62,0.01-0.92,0.01 c-0.27,0.01-0.53,0.02-0.79,0.02c-1.53,0-2.88-0.2-4.04-1.76c-0.71-0.95-1.45-2.65-1.92-4.44c-0.31-1.18-0.48-2.26-0.48-3.13 c0-5.12,3.66-9.29,8.15-9.29C62.31,49.6,65.96,53.77,65.96,58.89z"/><path fill="#472b29" d="M56.1,68.216c-1.531,0-2.877-0.199-4.042-1.754c-0.711-0.949-1.446-2.651-1.919-4.44l0,0 c-0.311-1.178-0.476-2.26-0.476-3.128c0-5.127,3.656-9.298,8.15-9.298c4.495,0,8.151,4.171,8.151,9.298s-3.656,9.298-8.151,9.298 c-0.32,0-0.626,0.007-0.92,0.013C56.623,68.21,56.359,68.216,56.1,68.216z M51.105,61.766c0.442,1.674,1.114,3.243,1.753,4.097 c1.053,1.406,2.233,1.381,4.012,1.343c0.302-0.007,0.615-0.014,0.942-0.014c3.943,0,7.151-3.723,7.151-8.298 s-3.208-8.298-7.151-8.298s-7.15,3.723-7.15,8.298C50.663,59.666,50.82,60.686,51.105,61.766L51.105,61.766z"/><path fill="#b2876b" d="M40.75,62.79c0.42,1.18,0.46,2.08,0.14,2.74c-0.21,0.43-0.58,0.74-1.07,0.91 c-0.22,0.08-0.44,0.12-0.66,0.12c-0.27,0-0.52-0.06-0.76-0.17c-0.67-0.32-1.19-1.04-1.6-2.21c-0.73-2.09-1.37-4.56,0.11-5.2 c0.51-0.21,1.28-0.3,2.08,0.47c0.1,0.1,0.16,0.24,0.15,0.39s-0.09,0.28-0.21,0.37c-0.37,0.27-0.57,0.52-0.64,0.69 c0.21-0.05,0.54-0.16,1-0.35c0.24-0.09,0.51,0.01,0.63,0.24C40.26,61.44,40.54,62.2,40.75,62.79z"/><path fill="#b2876b" d="M60.64,61.1c-0.29,0.61-0.83,1.05-1.6,1.32c-0.3,0.1-0.66,0.19-1.06,0.19 c-0.95,0-2.06-0.5-2.74-2.46c-0.47-1.33-1.71-4.88,0.56-5.8c1.03-0.42,2-0.26,2.81,0.44c0.12,0.11,0.18,0.26,0.17,0.42 c-0.02,0.16-0.11,0.31-0.25,0.39c-0.6,0.36-0.95,0.78-1.02,1.03c0.36-0.06,1.07-0.35,1.52-0.53c0.24-0.1,0.59-0.03,0.71,0.19 c0.3,0.56,0.57,1.21,0.84,2C60.98,59.42,61,60.37,60.64,61.1z"/><path fill="#472b29" d="M37.936,71.308c-2.707,0-5.844-1.932-7.374-6.518l0,0c-0.065-0.195-0.142-0.413-0.225-0.649 c-0.864-2.46-2.664-7.579,1.506-9.233c1.866-0.739,3.575-0.767,5.081-0.079c2.897,1.323,4.499,5.013,5.57,8.08 c0.869,2.49,0.851,4.6-0.054,6.101c-0.729,1.21-2.001,1.983-3.68,2.237C38.493,71.287,38.216,71.308,37.936,71.308z M31.511,64.474c1.505,4.51,4.653,6.153,7.101,5.784c1.374-0.208,2.402-0.818,2.973-1.766c0.746-1.237,0.734-3.055-0.034-5.254 c-1.005-2.88-2.487-6.335-5.041-7.501c-1.266-0.579-2.672-0.545-4.296,0.1c-3.023,1.199-2.066,4.744-0.932,7.973 C31.366,64.051,31.444,64.273,31.511,64.474L31.511,64.474z"/><path fill="#472b29" d="M39.157,66.562c-0.264,0-0.521-0.058-0.761-0.173c-0.666-0.319-1.187-1.043-1.595-2.21 c-0.728-2.086-1.374-4.561,0.108-5.196c0.512-0.215,1.283-0.304,2.078,0.463c0.106,0.103,0.162,0.248,0.151,0.396 c-0.011,0.147-0.087,0.283-0.208,0.369c-0.372,0.268-0.567,0.519-0.643,0.687c0.21-0.047,0.545-0.162,1.003-0.345 c0.238-0.093,0.509,0.006,0.628,0.232c0.342,0.653,0.626,1.417,0.836,2.009c0.412,1.178,0.456,2.071,0.135,2.732 c-0.209,0.431-0.579,0.748-1.068,0.917C39.598,66.522,39.375,66.562,39.157,66.562z M37.619,59.833 c-0.122,0-0.228,0.032-0.32,0.071c-0.24,0.103-0.687,0.697,0.447,3.944c0.388,1.11,0.803,1.504,1.083,1.639 c0.198,0.095,0.415,0.099,0.661,0.013c0.001,0,0.002-0.001,0.004-0.001c0.243-0.084,0.401-0.214,0.496-0.409 c0.135-0.278,0.213-0.844-0.178-1.964c-0.155-0.438-0.354-0.977-0.583-1.476c-0.778,0.289-1.6,0.492-1.891-0.176 c-0.216-0.5-0.039-1.077,0.473-1.614C37.743,59.841,37.679,59.833,37.619,59.833z"/><g><path fill="#472b29" d="M57.979,62.608c-0.947,0-2.058-0.496-2.742-2.456c-0.467-1.336-1.707-4.885,0.567-5.807 c1.028-0.415,1.999-0.259,2.805,0.445c0.121,0.106,0.184,0.263,0.169,0.423c-0.015,0.159-0.105,0.303-0.243,0.385 c-0.607,0.359-0.953,0.78-1.024,1.032c0.358-0.059,1.069-0.349,1.523-0.534c0.237-0.096,0.584-0.029,0.706,0.198 c0.297,0.559,0.572,1.21,0.842,1.992c0.396,1.133,0.417,2.08,0.062,2.812c-0.295,0.609-0.834,1.054-1.604,1.319 C58.744,62.521,58.376,62.608,57.979,62.608z M56.906,55.117c-0.229,0-0.469,0.052-0.727,0.155 c-0.935,0.379-0.934,1.868,0.003,4.55c0.706,2.021,1.784,1.909,2.531,1.651l0,0c0.516-0.179,0.853-0.443,1.03-0.81 c0.235-0.485,0.199-1.174-0.107-2.049c-0.19-0.551-0.381-1.028-0.579-1.449c-1.192,0.476-2.139,0.77-2.467,0.015 c-0.264-0.617,0.042-1.352,0.786-1.984C57.225,55.144,57.068,55.117,56.906,55.117z"/></g><g><path fill="#472b29" d="M51.628,71.962c-0.178,0-0.351-0.096-0.441-0.264c-0.131-0.243-0.04-0.546,0.204-0.677 c0.914-0.49,1.716-1.188,2.383-2.07c0.167-0.22,0.479-0.264,0.701-0.097c0.22,0.166,0.264,0.479,0.097,0.7 c-0.755,0.999-1.667,1.789-2.708,2.348C51.789,71.942,51.708,71.962,51.628,71.962z"/></g></svg>